<?xml version="1.0" encoding="UTF-8"?>
<svg id="Vrstva_1" data-name="Vrstva 1" xmlns="http://www.w3.org/2000/svg" width="456.35" height="102.06" viewBox="0 0 456.35 102.06">
  <defs>
    <style>
      .cls-1 {
        fill: #cd1719;
      }

      .cls-1, .cls-2 {
        stroke-width: 0px;
      }

      .cls-2 {
        fill: #fff;
      }
    </style>
  </defs>
  <path class="cls-2" d="M187.2,88h-27.83c-.52,0-1.15-.26-1.9-.77-.75-.52-1.49-1.13-2.21-1.85s-1.33-1.48-1.85-2.29-.77-1.49-.77-2.04v-22.64h7.95v21.65h25.4v-21.65h7.95v22.64c0,.55-.26,1.23-.77,2.04-.52.81-1.13,1.57-1.85,2.29s-1.46,1.34-2.24,1.85c-.77.51-1.4.77-1.88.77"/>
  <polygon class="cls-2" points="220.39 88 212.43 88 212.43 66.35 199.73 66.35 199.73 58.4 233.53 58.4 233.53 66.35 220.39 66.35 220.39 88"/>
  <path class="cls-2" d="M244.1,87.23c-.75-.52-1.49-1.13-2.21-1.85s-1.33-1.48-1.85-2.29-.77-1.49-.77-2.04v-15.9c0-.62.25-1.33.74-2.13.5-.79,1.11-1.53,1.85-2.21.73-.68,1.52-1.25,2.35-1.71s1.57-.69,2.23-.69h27.28c.7,0,1.46.21,2.29.64.83.42,1.6.97,2.32,1.63s1.32,1.39,1.82,2.18.75,1.56.75,2.29v16.29c0,.52-.26,1.15-.77,1.91-.52.76-1.14,1.48-1.88,2.18s-1.49,1.29-2.26,1.77c-.77.48-1.4.72-1.88.72h-28.11c-.52,0-1.15-.26-1.9-.77M272.95,66.35h-25.73v13.69h25.73v-13.69Z"/>
  <path class="cls-2" d="M320.44,77.01h-26.23c-.74,0-1.54-.2-2.4-.61-.87-.4-1.68-.92-2.46-1.55s-1.42-1.33-1.93-2.1c-.51-.77-.77-1.53-.77-2.26v-4.97c0-.74.24-1.53.72-2.37.48-.85,1.08-1.62,1.79-2.32.72-.7,1.49-1.28,2.32-1.74.83-.46,1.61-.69,2.35-.69h34.57v7.95h-33.79v2.98h26.23c.7,0,1.49.2,2.37.61.88.4,1.71.92,2.49,1.55.77.62,1.42,1.32,1.93,2.1.51.77.77,1.53.77,2.26v4.97c0,.74-.24,1.53-.72,2.38s-1.08,1.63-1.79,2.35c-.72.72-1.5,1.31-2.35,1.77s-1.62.69-2.32.69h-33.83v-7.95h33.06v-3.04h-.01Z"/>
  <polygon class="cls-2" points="354.79 88 346.83 88 346.83 66.35 334.14 66.35 334.14 58.4 367.93 58.4 367.93 66.35 354.79 66.35 354.79 88"/>
  <path class="cls-2" d="M379.38,61.05c.29-.4.69-.77,1.19-1.1.49-.33,1.05-.61,1.65-.83.61-.22,1.23-.39,1.88-.52.64-.13,1.26-.19,1.85-.19s1.22.05,1.88.14,1.31.24,1.93.44c.63.2,1.21.48,1.77.83.55.35,1.01.78,1.38,1.3l18.88,26.89h-10.44l-4.09-5.63h-22.64l-3.98,5.63h-10.44l19.16-26.95h.02ZM391.86,74.58l-5.69-7.79-.17-.06c-.08,0-.17.02-.28.06l-5.74,7.79h11.88Z"/>
  <path class="cls-2" d="M117.98,61.05c.29-.4.69-.77,1.19-1.1.5-.33,1.05-.61,1.66-.83s1.23-.39,1.88-.52c.64-.13,1.26-.19,1.85-.19s1.21.05,1.88.14c.66.09,1.31.24,1.93.44.62.2,1.21.48,1.77.83.55.35,1.01.78,1.38,1.3l18.88,26.89h-10.44l-4.09-5.63h-22.64l-3.97,5.63h-10.44l19.16-26.95h0ZM130.46,74.58l-5.69-7.79-.17-.06c-.07,0-.16.02-.27.06l-5.74,7.79h11.87Z"/>
  <path class="cls-1" d="M66.63,65.67c1.45,4.54,2.81,8.81,4.17,13.08-.16.1-.32.2-.49.29-5.55-4.02-11.11-8.04-16.84-12.19-5.68,4.1-11.19,8.08-16.71,12.07-.13-.12-.26-.24-.39-.36,2.09-6.51,4.18-13.01,6.27-19.52-5.72-4.18-11.21-8.2-16.7-12.22.08-.19.16-.38.25-.57h20.62c2.2-6.68,4.33-13.16,6.47-19.65.17.02.34.04.51.05,2,6.09,4,12.18,5.99,18.23l.45,1.42h68.13l5.48-7.58h-67.49C62.12,25.7,57.93,12.87,53.75.04c-.15,0-.29-.03-.44-.04-4.2,12.87-8.4,25.75-12.67,38.82H.08c-.03.13-.05.27-.08.4,10.87,7.9,21.75,15.79,32.76,23.8-4.23,13.04-8.41,25.93-12.59,38.82.12.07.25.14.37.22,11-7.97,22-15.94,33.04-23.93,10.98,7.95,21.79,15.78,32.59,23.6.16-.11.32-.22.48-.33-3.88-11.94-7.76-23.89-11.61-35.72h-8.42,0Z"/>
  <path class="cls-2" d="M449.17,58.4c.7,0,1.47.23,2.32.69.84.46,1.63,1.04,2.35,1.74s1.32,1.47,1.79,2.32c.48.85.72,1.64.72,2.37v7.34c0,.74-.26,1.5-.77,2.29-.52.79-1.16,1.51-1.93,2.15s-1.6,1.17-2.49,1.57c-.88.41-1.67.61-2.37.61h-6.05l11.1,8.5h-12.27l-11.43-8.5h-7.47v8.5h-8.06v-29.6h34.57v.02ZM422.66,71.71h25.73v-5.36h-25.73v5.36Z"/>
</svg>